<svg xmlns="http://www.w3.org/2000/svg" viewBox="0 0 800 800" role="img" aria-labelledby="title desc">
  <title>Tenis Runner Pro</title>
  <desc>Mockup local do produto Tenis Runner Pro</desc>
  <defs>
    <linearGradient id="bg" x1="0" y1="0" x2="1" y2="1">
      <stop offset="0%" stop-color="#3c0312"/>
      <stop offset="100%" stop-color="#ff395f"/>
    </linearGradient>
  </defs>
  <rect width="800" height="800" rx="48" fill="url(#bg)"/>
  <path d="M144 475c52 0 95-14 137-41l77-49 109 14c44 6 86 25 117 55l71 68c10 10 13 24 8 37-5 13-17 22-32 22H198c-42 0-71-39-54-76z" fill="#ffffff" opacity="0.95"/>
  <path d="M292 451c49-42 95-72 138-89l26 41c-30 16-58 34-85 57 37 4 73 18 107 40l-26 36c-35-23-72-35-111-35-17 0-33-3-49-10z" fill="#ff395f"/>
  <path d="M489 500h61M531 469h45M568 438h30" stroke="#d0d8f5" stroke-width="10" stroke-linecap="round"/>
  <text x="64" y="688" fill="#ffffff" font-family="Arial, sans-serif" font-size="52" font-weight="700">Tenis Runner Pro</text>
  <text x="64" y="738" fill="#ffe2e8" font-family="Arial, sans-serif" font-size="28">UrbanStyle Store</text>
</svg>